<svg  width="90%" height="100%" viewBox="0 0 51 24" fill="none" xmlns="http://www.w3.org/2000/svg">
    <path
        d="M48.7715 4.56589C48.6717 4.45 48.5343 4.38562 48.3988 4.38941C46.8451 4.4197 45.2889 
        4.44924 43.7314 4.47878C42.8251
         4.4962 41.9188 4.51362 41.0125
          4.53029L42.8086 0.624176C42.8683 
          0.493897 42.8658 0.33332 42.8016
           0.205313C42.7373 0.0773055 42.6197
            -0.00222489 42.4944 4.743e-05L40.8663
             0.0204974C40.7556 0.0212549 40.6507
              0.0848813 40.5852 0.190165L37.8435 
              4.59088C36.3444 4.61967 34.8454 4.64769 
              33.3509 4.67723C30.0457 4.74086 26.6285 4.806 23.3424 5.75279C22.3605 6.03532 21.5878 6.30497 20.8704 6.62006L20.8678 6.61249C20.0067 6.98742 19.1303 7.43961 18.1776 7.99102L18.1744 7.99254C18.1 8.03571 18.025 8.07889 17.9499 8.12358C16.4541 9.00372 14.763 10.127 12.6503 11.5783L12.6567 11.5911H10.362C8.85223 11.5911 7.3723 12.2107 6.19446 13.3348L3.98888 15.4397H40.3378V8.92722C40.4669 8.56819 40.6469 8.34626 40.9941 8.10464C41.244 7.93043 41.5353 7.78879 41.859 7.68199C42.8098 7.3722 43.8204 7.21541 44.7979 7.06392L48.4796 6.49433C48.7359 6.45039 48.9292 6.18529 48.9292 5.87777V5.0105C48.9292 4.84462 48.872 4.68253 48.7715 4.56589ZM24.5546 11.5911H15.1993C17.8902 9.79146 19.5265 8.83405 21.058 8.14403L24.5546 8.16751V11.5911ZM28.5053 11.401H25.8266V8.36369C26.7214 8.36899 27.6181 8.37505 28.5053 8.38035V11.401ZM35.4331 11.5911H29.7773V8.19856C30.6391 8.20462 31.4849 8.20992 32.304 8.21523C33.6733 8.22432 34.9847 8.57728 35.4331 9.03856V11.5911ZM50.4893 18.3293C50.3538 17.3575 49.6549 16.6516 48.8268 16.6516H0V17.7877H0.686224L2.66285 21.4545C2.87909 21.5075 3.09659 21.5598 3.31537 21.6113C3.53542 21.6636 3.75738 21.7143 3.97997 21.7635C15.6954 24.382 30.6524 24.1805 44.0067 23.7223C44.0646 22.7505 44.747 21.9809 45.577 21.9809H50.8461C50.8982 21.9809 50.9491 21.9847 51 21.9908L50.4893 18.3293ZM11.2035 19.8851H7.89444V18.7489H11.2035V19.8851ZM16.6945 19.8851H13.3849V18.7489H16.6945V19.8851ZM48.2704 19.8851H46.0762V18.7489H48.2704V19.8851Z"
        fill="#9A9A9A" />
</svg>