<svg width="150" height="40" viewBox="0 0 66 28" fill="none" xmlns="http://www.w3.org/2000/svg">
    <path
        d="M65.4933 15.0414C65.4223 14.8343 65.2884 14.6547 65.1103 14.5274C64.9322 14.4002 64.7189 14.3317 64.5 14.3316H61.525L59.6868 8.26957C59.6213 8.05402 59.4882 7.86524 59.3072 7.73112C59.1262 7.597 58.9069 7.52466 58.6816 7.52477H48.456C47.9989 7.52477 47.5943 7.82087 47.455 8.25627L46.9587 9.81937H36.059L35.5627 8.25627C35.4951 8.04388 35.3616 7.85852 35.1817 7.72701C35.0017 7.5955 34.7846 7.52467 34.5617 7.52477H24.6385L21.9435 4.35237L24.4495 2.50227L28.5333 2.25447C28.6709 2.24611 28.8055 2.21072 28.9295 2.15033C29.0534 2.08994 29.1642 2.00573 29.2556 1.90251C29.347 1.79929 29.4172 1.67907 29.4621 1.54874C29.507 1.4184 29.5259 1.28048 29.5175 1.14287C29.5091 1.00526 29.4737 0.870643 29.4134 0.746707C29.353 0.622772 29.2688 0.511945 29.1655 0.420553C29.0623 0.329162 28.9421 0.258996 28.8118 0.214062C28.6814 0.169129 28.5435 0.150307 28.4059 0.158673L24.012 0.425373C23.8096 0.437649 23.615 0.508411 23.452 0.629073L20.5806 2.74867L20.2943 2.41127C20.1649 2.25821 19.9942 2.14556 19.8026 2.08673C19.611 2.02791 19.4065 2.02539 19.2135 2.07947C4.4274 6.17797 0.685899 14.613 0.533999 14.9707V14.9721C0.500399 15.0498 0.477999 15.131 0.464699 15.2136C0.460499 15.2409 0.462599 15.2682 0.460499 15.2955C0.456299 15.3466 0.448599 15.397 0.452099 15.4481C0.452099 15.453 0.454199 15.4586 0.454899 15.4635C0.457699 15.4971 0.467499 15.5293 0.473099 15.5629C0.480799 15.6056 0.483599 15.649 0.496899 15.691L0.505299 15.7162L0.508099 15.7253L0.509499 15.7288C0.610299 16.0543 0.719499 16.3728 0.834299 16.6857C0.896599 16.8565 0.964499 17.0196 1.031 17.1848C1.0849 17.3192 1.1381 17.455 1.1948 17.5873C1.3117 17.8595 1.43564 18.1286 1.5665 18.3944C6.1886 27.8353 17.1898 27.843 26.994 27.843H59.516C59.9332 27.843 60.3112 27.5959 60.4785 27.2137L62.883 21.7082L64.2228 18.6415L65.4625 15.8037C65.5683 15.5625 65.5792 15.2903 65.4933 15.0414ZM61.2338 20.2361H5.2793C4.93991 19.8431 4.62546 19.4293 4.3378 18.9971C4.2755 18.9047 4.2125 18.8116 4.1523 18.7171C4.04425 18.5453 3.93993 18.3712 3.8394 18.1949C3.775 18.0815 3.7127 17.9653 3.6504 17.8491C3.5601 17.679 3.4691 17.5089 3.3837 17.3318C3.28986 17.1336 3.20047 16.9333 3.1156 16.7312C3.0722 16.6304 3.026 16.5352 2.984 16.4323L29.9403 16.44H29.9543C29.9809 16.44 30.0061 16.4344 30.032 16.4323H62.8935L61.2338 20.2361ZM33.7931 9.62477L34.2894 11.1879C34.357 11.4003 34.4905 11.5856 34.6704 11.7171C34.8504 11.8486 35.0675 11.9195 35.2904 11.9194H47.7259C48.183 11.9194 48.5876 11.6233 48.7269 11.1879L49.2232 9.62477H57.9025L59.3298 14.3316H30.4268L26.4235 9.62477H33.7931ZM19.1316 4.28587L23.3526 9.25517L23.4128 9.32587L27.6653 14.3316H3.3375C5.0126 11.9299 9.4128 7.13137 19.1316 4.28587ZM58.8286 25.7423H26.994C19.8715 25.7423 12.5845 25.7402 7.6327 22.3354H60.3161L58.8286 25.7423Z"
        fill="#9A9A9A" />
</svg>