<svg width="150" height="40" viewBox="0 0 56 22" fill="none" xmlns="http://www.w3.org/2000/svg">
    <path
        d="M52.9586 4.34194C52.8513 4.23735 52.7037 4.17924 52.5581 4.18266C50.888 4.21 49.2153 4.23666 47.5412 4.26332C46.567 4.27905 45.5929 4.29477 44.6188 4.30981L46.5493 0.784515C46.6135 0.666937 46.6108 0.522015 46.5417 0.406488C46.4727 0.29096 46.3462 0.219183 46.2116 0.221234L44.4616 0.23969C44.3426 0.240374 44.2298 0.297797 44.1594 0.392817L41.2125 4.3645C39.6012 4.39047 37.99 4.41577 36.3835 4.44243C32.8309 4.49985 29.158 4.55864 25.6258 5.41313C24.5704 5.66811 23.7398 5.91147 22.9687 6.19584L22.966 6.18901C22.0404 6.52739 21.0984 6.93549 20.0744 7.43315C20.073 7.43383 20.0723 7.43383 20.0709 7.43451C19.991 7.47348 19.9103 7.51244 19.8296 7.55278C18.2218 8.34711 16.4042 9.36088 14.1333 10.6706L14.1401 10.6823H11.6737C10.0508 10.6823 8.46011 11.2414 7.19409 12.2559L4.82339 14.1556H43.8935V8.27807C44.0323 7.95405 44.2257 7.75375 44.599 7.53569C44.8676 7.37846 45.1807 7.25063 45.5287 7.15424C46.5506 6.87465 47.6369 6.73315 48.6875 6.59643L52.6449 6.08237C52.9204 6.04272 53.1282 5.80346 53.1282 5.52592V4.74321C53.1282 4.5935 53.0667 4.44721 52.9586 4.34194ZM22.2133 7.56577V7.56645H22.2072V7.56577H22.2133ZM26.9288 10.6823H16.8731C19.7654 9.05805 21.5243 8.19399 23.1704 7.57123L26.9288 7.59243V10.6823ZM31.1752 10.5107H28.2959V7.76948C29.2578 7.77426 30.2216 7.77973 31.1752 7.78452V10.5107ZM38.6216 10.6823H32.5424V7.62045C33.4687 7.62592 34.3779 7.63071 35.2584 7.63549C36.7301 7.64369 38.1397 7.96225 38.6216 8.37856V10.6823ZM54.805 16.7635C54.6594 15.8865 53.9082 15.2494 53.0181 15.2494H0.535889V16.2748H1.27349L3.3981 19.584C3.63052 19.6319 3.86431 19.679 4.09946 19.7255C4.33599 19.7727 4.57456 19.8185 4.81382 19.8629C17.4063 22.2261 33.4831 22.0443 47.8372 21.6307C47.8994 20.7537 48.6329 20.0591 49.525 20.0591H55.1885C55.2446 20.0591 55.2993 20.0625 55.354 20.068L54.805 16.7635ZM12.5781 18.1676H9.02134V17.1422H12.5781V18.1676ZM18.4802 18.1676H14.9228V17.1422H18.4802V18.1676ZM52.42 18.1676H50.0616V17.1422H52.42V18.1676Z"
        fill="#9A9A9A" />
</svg>