<!-- <svg className="responsive-svg" viewBox="0 0 25 70" fill="none" xmlns="http://www.w3.org/2000/svg">
    <path
        d="M41.4698 50.8405C29.5371 52.171 17.5112 52.9273 5.45957 53.1048L5.57597 50.202C13.4781 50.3435 21.1277 48.013 26.8379 43.7245C31.8481 39.87 35.0147 34.7802 35.8034 29.3098C37.2731 19.2577 26.2248 7.47277 19.4687 2.09787C14.9118 -1.51804 9.95323 -6.19626 8.05073 -8.07838C8.05155 -8.29766 7.95892 -8.51116 7.78678 -8.6835C7.60562 -8.86485 7.3384 -8.97867 7.04658 -8.99924C6.79493 -9.00889 6.55228 -8.92593 6.3908 -8.77481C6.05061 -8.38384 5.89322 -7.91183 5.9465 -7.43983L3.34626 53.1541C-5.71421 53.3033 -16.1066 53.2538 -27.5352 52.7895H-28L-27.7672 53.1625C-27.5877 53.4281 -23.4432 59.7976 -21.2438 60.2534C-19.9855 60.5274 -8.69458 61 3.07358 61C13.5193 61 24.302 60.627 28.6794 59.4078C34.1364 57.9732 38.7613 55.0588 41.7254 51.1889L42 50.7658L41.4698 50.8405ZM25.5474 31.2835C23.0842 39.2123 12.8605 45.7811 11.6342 46.5194C12.4588 45.8725 17.5337 41.7255 21.4136 33.2494C23.9154 27.6496 23.9154 21.5484 21.4136 15.9487C21.7735 16.33 28.1173 23.0807 25.5474 31.2835ZM20.2611 27.3023C19.6021 33.0627 16.838 38.5519 12.3006 43.1104C10.3456 45.145 8.11184 47.0054 5.6396 48.6587L8.00776 -6.68552C10.3556 -2.92885 21.3177 15.3672 20.2611 27.3023Z"
        fill="#9A9A9A" />
</svg> -->

<svg width="70" height="70" viewBox="0 0 70 70" fill="none" xmlns="http://www.w3.org/2000/svg">
    <path d="M69.4698 59.8405C57.5371 61.171 45.5112 61.9273 33.4596 62.1048L33.576 59.202C41.4781 59.3435 49.1277 57.013 54.8379 52.7245C59.8481 48.87 63.0147 43.7802 63.8034 38.3098C65.2731 28.2577 54.2248 16.4728 47.4687 11.0979C42.9118 7.48196 37.9532 2.80374 36.0507 0.92162C36.0516 0.702344 35.9589 0.488844 35.7868 0.316501C35.6056 0.135154 35.3384 0.0213348 35.0466 0.00075706C34.7949 -0.00888878 34.5523 0.0740667 34.3908 0.225188C34.0506 0.616164 33.8932 1.08817 33.9465 1.56017L31.3463 62.1541C22.2858 62.3033 11.8934 62.2538 0.464775 61.7895H0L0.232805 62.1625C0.412325 62.4281 4.55676 68.7976 6.75619 69.2534C8.01447 69.5274 19.3054 70 31.0736 70C41.5193 70 52.302 69.627 56.6794 68.4078H56.6786C62.1356 66.9732 66.7613 64.0588 69.7254 60.1889L70 59.7658L69.4698 59.8405ZM53.5474 40.2835C51.0842 48.2123 40.8605 54.7811 39.6342 55.5194C40.4588 54.8725 45.5337 50.7254 49.4136 42.2494V42.2488C51.9154 36.649 51.9154 30.5484 49.4136 24.9487C49.7735 25.33 56.1173 32.0814 53.5474 40.2842V40.2835ZM48.2619 36.3023C47.6029 42.0627 44.838 47.5519 40.3006 52.1104C38.3456 54.145 36.1118 56.0054 33.6396 57.6587L36.0078 2.31448C38.3556 6.07115 49.3185 24.3672 48.2619 36.3023Z" fill="#9A9A9A"/>
    </svg>
    