<svg width="150" height="70" viewBox="0 0 25 70" fill="none" xmlns="http://www.w3.org/2000/svg">
    <g clip-path="url(#clip0_158_300)">
        <path
            d="M41.4698 50.8405C29.5371 52.171 17.5112 52.9273 5.45957 53.1048L5.57597 50.202C13.4781 50.3435 21.1277 48.013 26.8379 43.7245C31.8481 39.87 35.0147 34.7802 35.8034 29.3098C37.2731 19.2577 26.2248 7.47277 19.4687 2.09787C14.9118 -1.51804 9.95323 -6.19626 8.05073 -8.07838C8.05155 -8.29766 7.95892 -8.51116 7.78678 -8.6835C7.60562 -8.86485 7.3384 -8.97867 7.04658 -8.99924C6.79493 -9.00889 6.55228 -8.92593 6.3908 -8.77481C6.05061 -8.38384 5.89322 -7.91183 5.9465 -7.43983L3.34626 53.1541C-5.71421 53.3033 -16.1066 53.2538 -27.5352 52.7895H-28L-27.7672 53.1625C-27.5877 53.4281 -23.4432 59.7976 -21.2438 60.2534C-19.9855 60.5274 -8.69458 61 3.07358 61C13.5193 61 24.302 60.627 28.6794 59.4078C34.1364 57.9732 38.7613 55.0588 41.7254 51.1889L42 50.7658L41.4698 50.8405ZM25.5474 31.2835C23.0842 39.2123 12.8605 45.7811 11.6342 46.5194C12.4588 45.8725 17.5337 41.7255 21.4136 33.2494C23.9154 27.6496 23.9154 21.5484 21.4136 15.9487C21.7735 16.33 28.1173 23.0807 25.5474 31.2835ZM20.2611 27.3023C19.6021 33.0627 16.838 38.5519 12.3006 43.1104C10.3456 45.145 8.11184 47.0054 5.6396 48.6587L8.00776 -6.68552C10.3556 -2.92885 21.3177 15.3672 20.2611 27.3023Z"
            fill="#9A9A9A" />
    </g>
</svg>